<svg width="29" height="28" viewBox="0 0 29 28" fill="none" xmlns="http://www.w3.org/2000/svg">
<path d="M3.65643 20.9663L4.89445 20.1193H4.89444L3.65643 20.9663ZM24.7784 20.9663L23.5403 20.1193V20.1193L24.7784 20.9663ZM4.56041 22.1339L3.12487 21.6989L2.88393 22.4941L3.43023 23.1201L4.56041 22.1339ZM23.8743 22.1339L25.0045 23.1201L25.5508 22.4941L25.3098 21.6989L23.8743 22.1339ZM1.5 14H3C3 7.94914 7.99771 3 14.2174 3V1.5V0C6.38983 0 0 6.24374 0 14H1.5ZM14.2174 1.5V3C20.4371 3 25.4348 7.94914 25.4348 14H26.9348H28.4348C28.4348 6.24374 22.045 0 14.2174 0V1.5ZM14.2174 26.5V25C10.3266 25 6.9061 23.0598 4.89445 20.1193L3.65643 20.9663L2.41841 21.8132C4.97353 25.5481 9.30877 28 14.2174 28V26.5ZM3.65643 20.9663L4.89444 20.1193C3.69697 18.3689 3 16.2657 3 14H1.5H0C0 16.8924 0.892338 19.5825 2.41841 21.8132L3.65643 20.9663ZM26.9348 14H25.4348C25.4348 16.2657 24.7378 18.3689 23.5403 20.1193L24.7784 20.9663L26.0164 21.8132C27.5424 19.5825 28.4348 16.8924 28.4348 14H26.9348ZM24.7784 20.9663L23.5403 20.1193C21.5287 23.0598 18.1082 25 14.2174 25V26.5V28C19.126 28 23.4613 25.5481 26.0164 21.8132L24.7784 20.9663ZM17.0435 9.83333H15.5435C15.5435 10.5148 14.9743 11.1111 14.2174 11.1111V12.6111V14.1111C16.5821 14.1111 18.5435 12.2202 18.5435 9.83333H17.0435ZM14.2174 12.6111V11.1111C13.4605 11.1111 12.8913 10.5148 12.8913 9.83333H11.3913H9.8913C9.8913 12.2202 11.8526 14.1111 14.2174 14.1111V12.6111ZM11.3913 9.83333H12.8913C12.8913 9.15191 13.4605 8.55555 14.2174 8.55555V7.05555V5.55555C11.8526 5.55555 9.8913 7.4465 9.8913 9.83333H11.3913ZM14.2174 7.05555V8.55555C14.9743 8.55555 15.5435 9.15191 15.5435 9.83333H17.0435H18.5435C18.5435 7.44651 16.5821 5.55555 14.2174 5.55555V7.05555ZM9.97822 18.1666V19.6666H18.4565V18.1666V16.6666H9.97822V18.1666ZM9.97822 18.1666V16.6666C6.7538 16.6666 4.01068 18.7754 3.12487 21.6989L4.56041 22.1339L5.99596 22.5689C6.5005 20.9037 8.08249 19.6666 9.97822 19.6666V18.1666ZM14.2174 26.5V25C10.8004 25 7.74696 23.5041 5.6906 21.1476L4.56041 22.1339L3.43023 23.1201C6.03866 26.1092 9.90744 28 14.2174 28V26.5ZM18.4565 18.1666V19.6666C20.3522 19.6666 21.9342 20.9037 22.4387 22.5689L23.8743 22.1339L25.3098 21.6989C24.424 18.7754 21.6809 16.6666 18.4565 16.6666V18.1666ZM23.8743 22.1339L22.7441 21.1476C20.6877 23.5041 17.6344 25 14.2174 25V26.5V28C18.5273 28 22.3961 26.1092 25.0045 23.1201L23.8743 22.1339Z" fill="#626168"/>
</svg>
